<svg xmlns="http://www.w3.org/2000/svg" viewBox="0 0 1024 1024" role="img" aria-hidden="true">
  <path fill="#151516" d="M520.378 302.545c-142.429.047-280.39 39.75-401.082 115.526l-10.938 7.308a197.213 197.213 0 0 0-27.462 22.528C22.016 506.74 6.749 595.782 42.124 672.256l4.142 7.82 2.048 3.444 5.26 7.494c2.327 3.025 4.002 4.934 6.423 7.308 15.64 14.661 34.909 22.574 55.11 23.086l7.4-.14c9.868-.744 18.432-2.792 26.717-6.144l140.055-63.627c16.384-7.634 24.902-18.619 30.534-37.609l11.543-40.355 10.706-35.84 6.981-22.9 6.889-21.783a21.737 21.737 0 0 1 5.213-8.937 19.828 19.828 0 0 1 9.262-4.794c54.086-13.964 103.61-20.853 149.69-20.853 46.034-.325 95.325 6.424 150.016 20.527 3.864.93 6.517 2.373 8.844 4.7a20.154 20.154 0 0 1 5.306 9.31l21.644 71.214 14.568 49.943c5.446 18.292 13.406 28.579 29.324 36.399l141.963 64.326c9.542 3.863 18.619 5.818 27.928 6.144l7.866-.093c19.643-1.397 37.33-8.844 51.666-21.411 2.234-1.955 4.421-4.096 6.47-6.516 3.816-4.422 7.027-9.31 9.96-14.895l2.978-6.144a198.097 198.097 0 0 0-71.773-250.74l-24.67-14.895a751.057 751.057 0 0 0-407.272-106.822Zm0 46.546c126.51 0 249.67 33.373 357.935 97.094l17.268 10.519c9.681 5.306 22.341 14.987 31.278 23.924a151.412 151.412 0 0 1 29.743 171.334l-2.514 5.213a29.743 29.743 0 0 1-3.723 5.539l-1.676 1.629a39.843 39.843 0 0 1-23.272 10.054l-5.26.093a33.932 33.932 0 0 1-10.1-2.42L769.676 608.35c-1.769-.93-2.327-1.117-2.979-2.513l-1.536-4.934-20.899-71.121-15.5-50.548a65.955 65.955 0 0 0-16.895-28.579 63.116 63.116 0 0 0-30.627-16.942c-57.902-14.988-111.197-22.295-161.326-21.876-50.036 0-103.377 7.4-160.721 22.202a65.63 65.63 0 0 0-30.953 17.036c-7.773 7.773-13.59 17.687-16.756 28.113l-13.963 44.87-14.197 47.802-8.285 29.184c-1.536 5.167-1.862 6.284-3.63 7.261L160.84 672.26a38.167 38.167 0 0 1-10.799 2.467l-4.98.093a35.887 35.887 0 0 1-22.76-10.054l-1.397-1.629-3.63-5.073-3.352-6.284a151.505 151.505 0 0 1 29.883-171.054c5.585-5.586 12.194-10.985 20.806-16.99l10.053-6.748A704.326 704.326 0 0 1 499.34 349.328l21.039-.326Z"/>
</svg>
