<svg xmlns="http://www.w3.org/2000/svg" viewBox="0 0 1024 1024" role="img" aria-hidden="true">
  <path fill="#0E131A" d="M634.45 312.716a49.548 49.548 0 0 1 49.549 49.549v57.872l88.989-76.535a29.729 29.729 0 0 1 39.077.264l2.84 2.874a29.729 29.729 0 0 1 7.202 19.39v277.04a29.729 29.729 0 0 1-49.681 22.033l-88.46-79.905v62.662a49.548 49.548 0 0 1-44.759 49.317l-4.756.232H277.075a49.548 49.548 0 0 1-49.549-49.549V362.265a49.548 49.548 0 0 1 49.549-49.549Zm0 33.033H277.075a16.516 16.516 0 0 0-16.517 16.516V647.96a16.516 16.516 0 0 0 16.517 16.517H634.45a16.516 16.516 0 0 0 16.516-16.517V362.265a16.516 16.516 0 0 0-16.516-16.516Zm154.592 27.581-105.043 90.31v77.131l105.043 94.935Z"/>
</svg>
